# xmcd
#
# Track frame offsets:
#	180
#	16267
#	31306
#	47110
#	67409
#	80932
#	92103
#	109568
#
# Disc length: 1709 seconds
#
# Revision: 1
# Processed by: cddbd v1.4PL0 Copyright (c) Steve Scherf et al.
# Submitted via: CDmax 2.0
#
DISCID=6906ab08
DTITLE=Urban Twang - Go Call Delia
DYEAR=1995
DGENRE=Country
TTITLE0=Sunset In The Jemez
TTITLE1=Think I'll Drive
TTITLE2=If Liquor Were A Woman
TTITLE3=Sweet William
TTITLE4=Dedicated Heart
TTITLE5=Dusty's Lament
TTITLE6=Hurricane Season
TTITLE7=Weatherman's Blues
EXTD=
EXTT0=
EXTT1=
EXTT2=
EXTT3=
EXTT4=
EXTT5=
EXTT6=
EXTT7=
PLAYORDER=
